# xmcd CD database file
#
# Track frame offsets:
#	150
#	19212
#	36797
#	65343
#	93338
#	108869
#	133348
#	159247
#	182867
#	207272
#	227458
#
# Disc length: 3334 seconds
#
# Revision: 0
# Processed by: cddbd v1.5.1PL0 Copyright (c) Steve Scherf et al.
# Submitted via: CDex 1.51
#
DISCID=8b0d040b
DTITLE=Lancaster - BlueSamba
DYEAR=2004
DGENRE=Blues
TTITLE0=Itamara
TTITLE1=Copenhagen Jam
TTITLE2=Ela gosta de Blues
TTITLE3=Caruaru
TTITLE4=Pedrinho
TTITLE5=Relaxando com Lancaster e Flavio
TTITLE6=BlueSamba
TTITLE7=Voando com Simpatia
TTITLE8=Suflê
TTITLE9=Ser Humando
TTITLE10=Katita
EXTD=YEAR: 2004
EXTT0=
EXTT1=
EXTT2=
EXTT3=
EXTT4=
EXTT5=
EXTT6=
EXTT7=
EXTT8=
EXTT9=
EXTT10=
PLAYORDER=
